<?xml version="1.0" encoding="UTF-8" standalone="no"?>
<!-- Created with Inkscape (http://www.inkscape.org/) -->

<svg
   xmlns:dc="http://purl.org/dc/elements/1.1/"
   xmlns:cc="http://creativecommons.org/ns#"
   xmlns:rdf="http://www.w3.org/1999/02/22-rdf-syntax-ns#"
   xmlns:svg="http://www.w3.org/2000/svg"
   xmlns="http://www.w3.org/2000/svg"
   xmlns:sodipodi="http://sodipodi.sourceforge.net/DTD/sodipodi-0.dtd"
   xmlns:inkscape="http://www.inkscape.org/namespaces/inkscape"
   width="118.03088mm"
   height="118.62251mm"
   viewBox="0 0 118.03088 118.62251"
   version="1.1"
   id="svg8"
   inkscape:version="0.92.2 2405546, 2018-03-11"
   sodipodi:docname="ave-demon.svg">
  <defs
     id="defs2">
    <inkscape:path-effect
       effect="bspline"
       id="path-effect2785"
       is_visible="true"
       weight="33.333333"
       steps="2"
       helper_size="0"
       apply_no_weight="true"
       apply_with_weight="true"
       only_selected="false" />
    <inkscape:path-effect
       effect="bspline"
       id="path-effect2744"
       is_visible="true"
       weight="33.333333"
       steps="2"
       helper_size="0"
       apply_no_weight="true"
       apply_with_weight="true"
       only_selected="false" />
    <inkscape:path-effect
       effect="bspline"
       id="path-effect2740"
       is_visible="true"
       weight="33.333333"
       steps="2"
       helper_size="0"
       apply_no_weight="true"
       apply_with_weight="true"
       only_selected="false" />
    <inkscape:path-effect
       effect="bspline"
       id="path-effect2736"
       is_visible="true"
       weight="33.333333"
       steps="2"
       helper_size="0"
       apply_no_weight="true"
       apply_with_weight="true"
       only_selected="false" />
    <inkscape:path-effect
       effect="bspline"
       id="path-effect2699"
       is_visible="true"
       weight="33.333333"
       steps="2"
       helper_size="0"
       apply_no_weight="true"
       apply_with_weight="true"
       only_selected="false" />
    <inkscape:path-effect
       effect="bspline"
       id="path-effect2695"
       is_visible="true"
       weight="33.333333"
       steps="2"
       helper_size="0"
       apply_no_weight="true"
       apply_with_weight="true"
       only_selected="false" />
    <inkscape:path-effect
       effect="bspline"
       id="path-effect2691"
       is_visible="true"
       weight="33.333333"
       steps="2"
       helper_size="0"
       apply_no_weight="true"
       apply_with_weight="true"
       only_selected="false" />
    <inkscape:path-effect
       effect="bspline"
       id="path-effect2687"
       is_visible="true"
       weight="33.333333"
       steps="2"
       helper_size="0"
       apply_no_weight="true"
       apply_with_weight="true"
       only_selected="false" />
    <inkscape:path-effect
       effect="bspline"
       id="path-effect2668"
       is_visible="true"
       weight="33.333333"
       steps="2"
       helper_size="0"
       apply_no_weight="true"
       apply_with_weight="true"
       only_selected="false" />
    <inkscape:path-effect
       effect="bspline"
       id="path-effect2664"
       is_visible="true"
       weight="33.333333"
       steps="2"
       helper_size="0"
       apply_no_weight="true"
       apply_with_weight="true"
       only_selected="false" />
    <inkscape:path-effect
       effect="bspline"
       id="path-effect2660"
       is_visible="true"
       weight="33.333333"
       steps="2"
       helper_size="0"
       apply_no_weight="true"
       apply_with_weight="true"
       only_selected="false" />
    <inkscape:path-effect
       effect="bspline"
       id="path-effect2656"
       is_visible="true"
       weight="33.333333"
       steps="2"
       helper_size="0"
       apply_no_weight="true"
       apply_with_weight="true"
       only_selected="false" />
    <inkscape:path-effect
       effect="bspline"
       id="path-effect2652"
       is_visible="true"
       weight="33.333333"
       steps="2"
       helper_size="0"
       apply_no_weight="true"
       apply_with_weight="true"
       only_selected="false" />
    <inkscape:path-effect
       effect="bspline"
       id="path-effect2645"
       is_visible="true"
       weight="33.333333"
       steps="2"
       helper_size="0"
       apply_no_weight="true"
       apply_with_weight="true"
       only_selected="false" />
    <inkscape:path-effect
       effect="bspline"
       id="path-effect2536"
       is_visible="true"
       weight="33.333333"
       steps="2"
       helper_size="0"
       apply_no_weight="true"
       apply_with_weight="true"
       only_selected="false" />
    <inkscape:path-effect
       effect="bspline"
       id="path-effect2528"
       is_visible="true"
       weight="33.333333"
       steps="2"
       helper_size="0"
       apply_no_weight="true"
       apply_with_weight="true"
       only_selected="false" />
    <inkscape:path-effect
       effect="bspline"
       id="path-effect2520"
       is_visible="true"
       weight="33.333333"
       steps="2"
       helper_size="0"
       apply_no_weight="true"
       apply_with_weight="true"
       only_selected="false" />
    <inkscape:path-effect
       effect="bspline"
       id="path-effect2515"
       is_visible="true"
       weight="33.333333"
       steps="2"
       helper_size="0"
       apply_no_weight="true"
       apply_with_weight="true"
       only_selected="false" />
    <inkscape:path-effect
       effect="bspline"
       id="path-effect2509"
       is_visible="true"
       weight="33.333333"
       steps="2"
       helper_size="0"
       apply_no_weight="true"
       apply_with_weight="true"
       only_selected="false" />
    <inkscape:path-effect
       effect="bspline"
       id="path-effect2505"
       is_visible="true"
       weight="33.333333"
       steps="2"
       helper_size="0"
       apply_no_weight="true"
       apply_with_weight="true"
       only_selected="false" />
    <inkscape:path-effect
       effect="bspline"
       id="path-effect2501"
       is_visible="true"
       weight="33.333333"
       steps="2"
       helper_size="0"
       apply_no_weight="true"
       apply_with_weight="true"
       only_selected="false" />
    <inkscape:path-effect
       effect="bspline"
       id="path-effect2493"
       is_visible="true"
       weight="33.333333"
       steps="2"
       helper_size="0"
       apply_no_weight="true"
       apply_with_weight="true"
       only_selected="false" />
    <inkscape:path-effect
       effect="bspline"
       id="path-effect2489"
       is_visible="true"
       weight="33.333333"
       steps="2"
       helper_size="0"
       apply_no_weight="true"
       apply_with_weight="true"
       only_selected="false" />
    <inkscape:path-effect
       effect="bspline"
       id="path-effect2485"
       is_visible="true"
       weight="33.333333"
       steps="2"
       helper_size="0"
       apply_no_weight="true"
       apply_with_weight="true"
       only_selected="false" />
    <inkscape:path-effect
       effect="bspline"
       id="path-effect2481"
       is_visible="true"
       weight="33.333333"
       steps="2"
       helper_size="0"
       apply_no_weight="true"
       apply_with_weight="true"
       only_selected="false" />
    <inkscape:path-effect
       effect="bspline"
       id="path-effect2477"
       is_visible="true"
       weight="33.333333"
       steps="2"
       helper_size="0"
       apply_no_weight="true"
       apply_with_weight="true"
       only_selected="false" />
    <inkscape:path-effect
       effect="bspline"
       id="path-effect2473"
       is_visible="true"
       weight="33.333333"
       steps="2"
       helper_size="0"
       apply_no_weight="true"
       apply_with_weight="true"
       only_selected="false" />
    <inkscape:path-effect
       effect="bspline"
       id="path-effect2469"
       is_visible="true"
       weight="33.333333"
       steps="2"
       helper_size="0"
       apply_no_weight="true"
       apply_with_weight="true"
       only_selected="false" />
    <inkscape:path-effect
       effect="bspline"
       id="path-effect840"
       is_visible="true"
       weight="33.333333"
       steps="2"
       helper_size="0"
       apply_no_weight="true"
       apply_with_weight="true"
       only_selected="false" />
    <inkscape:path-effect
       effect="bspline"
       id="path-effect836"
       is_visible="true"
       weight="33.333333"
       steps="2"
       helper_size="0"
       apply_no_weight="true"
       apply_with_weight="true"
       only_selected="false" />
    <inkscape:path-effect
       effect="bspline"
       id="path-effect832"
       is_visible="true"
       weight="33.333333"
       steps="2"
       helper_size="0"
       apply_no_weight="true"
       apply_with_weight="true"
       only_selected="false" />
    <inkscape:path-effect
       effect="bspline"
       id="path-effect828"
       is_visible="true"
       weight="33.333333"
       steps="2"
       helper_size="0"
       apply_no_weight="true"
       apply_with_weight="true"
       only_selected="false" />
    <inkscape:path-effect
       effect="bspline"
       id="path-effect840-7"
       is_visible="true"
       weight="33.333333"
       steps="2"
       helper_size="0"
       apply_no_weight="true"
       apply_with_weight="true"
       only_selected="false" />
    <inkscape:path-effect
       effect="bspline"
       id="path-effect2469-2"
       is_visible="true"
       weight="33.333333"
       steps="2"
       helper_size="0"
       apply_no_weight="true"
       apply_with_weight="true"
       only_selected="false" />
    <inkscape:path-effect
       effect="bspline"
       id="path-effect2469-0"
       is_visible="true"
       weight="33.333333"
       steps="2"
       helper_size="0"
       apply_no_weight="true"
       apply_with_weight="true"
       only_selected="false" />
  </defs>
  <sodipodi:namedview
     id="base"
     pagecolor="#ffffff"
     bordercolor="#666666"
     borderopacity="1.0"
     inkscape:pageopacity="0.0"
     inkscape:pageshadow="2"
     inkscape:zoom="0.63244789"
     inkscape:cx="-122.97174"
     inkscape:cy="275.84709"
     inkscape:document-units="mm"
     inkscape:current-layer="layer1"
     showgrid="false"
     inkscape:window-width="1366"
     inkscape:window-height="711"
     inkscape:window-x="0"
     inkscape:window-y="0"
     inkscape:window-maximized="1"
     inkscape:object-paths="true"
     inkscape:snap-nodes="false"
     inkscape:object-nodes="false"
     fit-margin-top="0"
     fit-margin-left="0"
     fit-margin-right="0"
     fit-margin-bottom="0" />
  <metadata
     id="metadata5">
    <rdf:RDF>
      <cc:Work
         rdf:about="">
        <dc:format>image/svg+xml</dc:format>
        <dc:type
           rdf:resource="http://purl.org/dc/dcmitype/StillImage" />
        <dc:title />
      </cc:Work>
    </rdf:RDF>
  </metadata>
  <g
     inkscape:label="Layer 1"
     inkscape:groupmode="layer"
     id="layer1"
     transform="translate(-7.3954182,-23.073704)">
    <path
       style="fill:#591805;fill-opacity:1;stroke:#000000;stroke-width:1.26499999;stroke-linecap:butt;stroke-linejoin:miter;stroke-miterlimit:4;stroke-dasharray:none;stroke-opacity:1"
       d="m 55.324792,105.63502 c 0.534491,2.18251 1.06903,4.36521 1.269506,6.88208 0.200476,2.51687 0.06685,5.3675 -0.216929,7.57412 -0.283782,2.20662 -0.740675,3.85144 -1.208343,4.85378 -0.467668,1.00234 -0.957568,1.40317 -1.352672,2.1179 -0.395105,0.71472 -0.718717,1.82425 -0.585069,3.00498 0.133647,1.18072 0.712559,2.47214 0.757269,3.22941 0.04471,0.75726 -0.44524,0.97997 -1.470334,0.9577 -1.025093,-0.0223 -2.583152,-0.28936 -3.741469,-0.75714 -1.158317,-0.46778 -1.915477,-1.13586 -2.22949,-2.11624 -0.314013,-0.98037 -0.175971,-2.36079 -0.129217,-2.82834 0.04675,-0.46754 -0.0022,0.0221 -0.06906,0.80199 -0.06685,0.7799 -0.155882,1.8928 -0.445339,2.58334 -0.289456,0.69053 -0.779326,0.95774 -1.024481,1.51477 -0.245155,0.55704 -0.245155,1.40285 0.04446,2.22716 0.289614,0.82432 0.868518,1.62587 1.091272,2.62805 0.222754,1.00218 0.08913,2.20482 -0.04449,3.02894 -0.133619,0.82412 -0.267224,1.26947 -0.579101,1.55917 -0.311877,0.28971 -0.801523,0.42325 -1.291833,0.24495 -0.49031,-0.17829 -0.979989,-0.66797 -1.492242,-1.13568 -0.512252,-0.46771 -1.046794,-0.91316 -2.026726,-1.26952 -0.979932,-0.35635 -2.405299,-0.62361 -3.652745,-1.33644 -1.247446,-0.71283 -2.316369,-1.87083 -2.69496,-3.11823 -0.37859,-1.2474 -0.06677,-2.58377 0.334166,-3.51913 0.400937,-0.93536 0.891042,-1.47002 1.135915,-1.69276 0.244872,-0.22273 0.244872,-0.13361 -0.179474,0.67042 -0.424346,0.80403 -1.268187,2.31406 -1.980907,3.29414 -0.712719,0.98008 -1.291684,1.42544 -2.33759,1.60379 -1.045905,0.17835 -2.562277,0.0892 -3.943374,-0.42318 -1.381098,-0.51233 -2.628151,-1.44762 -3.318641,-2.24956 -0.690491,-0.80194 -0.824121,-1.47009 -0.75727,-1.73725 0.06685,-0.26716 0.334199,-0.13349 1.135823,-0.0667 0.801624,0.0668 2.1385,0.0668 3.2075,-0.31189 1.069,-0.37869 1.870972,-1.1361 2.338561,-1.91552 0.467588,-0.77943 0.601269,-1.58151 0.645788,-2.29408 0.04452,-0.71257 -4.2e-5,-1.33643 -0.400799,-2.09341 -0.400757,-0.75698 -1.15832,-1.64823 -2.138233,-2.40545 -0.979913,-0.75721 -2.182657,-1.38086 -3.36304,-1.55909 -1.180384,-0.17823 -2.338453,0.089 -3.585954,0.0445 -1.247501,-0.0445 -2.58349,-0.4008 -3.630438,-0.95769 -1.046948,-0.55689 -1.804109,-1.31405 -2.294125,-2.20504 -0.490016,-0.891 -0.71274,-1.91553 -0.737436,-3.20751 -0.0247,-1.29197 0.158406,-2.93989 0.559326,-4.29842 0.40092,-1.35853 1.02466,-2.47235 1.946437,-3.32273 0.921776,-0.85038 2.10742,-1.42125 2.486096,-1.5327 0.378677,-0.11145 -0.06689,0.245 -0.579354,0.69061 -0.512464,0.44562 -1.09117,0.97981 -1.492242,2.02696 -0.401072,1.04716 -0.623691,2.60549 -0.467766,3.71931 0.155925,1.11382 0.690359,1.78186 1.625928,2.33873 0.935569,0.55686 2.27185,1.00229 3.830887,1.06908 1.559038,0.0668 3.341048,-0.24508 4.298994,-0.91614 0.957945,-0.67106 1.090857,-1.69006 0.890436,-3.07064 -0.200421,-1.38057 -0.735112,-3.11832 -0.957799,-4.38788 -0.222687,-1.26956 -0.13359,-2.07144 0.08911,-2.93991 0.222705,-0.86847 0.579193,-1.80425 1.366239,-3.3307 0.787047,-1.526452 2.005555,-3.64536 2.803508,-5.491785 0.797954,-1.846424 1.175987,-3.421558 0.924025,-5.248148 -0.251962,-1.826591 -1.134081,-3.905869 -1.826915,-4.44146 -0.692834,-0.535591 -1.196834,0.472408 -1.259875,1.323076 -0.06304,0.850668 0.314817,1.543406 0.947044,2.008121 0.632227,0.464715 1.635861,0.732351 2.045282,1.236072 0.409421,0.50372 0.283405,1.259818 0.06296,1.637945 -0.220441,0.378127 -0.661287,0.378127 -1.32314,0.189034 -0.661853,-0.189094 -1.606133,-0.566806 -2.551187,-1.102333 -0.945054,-0.535527 -1.889858,-1.228382 -2.488369,-2.236471 -0.598512,-1.008088 -0.850483,-2.330941 -0.472438,-3.527815 0.378046,-1.196874 1.386139,-2.267974 2.645892,-3.307246 1.259753,-1.039272 2.772041,-2.047463 3.527841,-4.094554 0.755801,-2.04709 0.755801,-5.134518 0.724302,-8.032217 -0.0315,-2.897699 -0.0945,-5.60676 -0.03149,-7.685577 0.06301,-2.078818 0.252015,-3.527867 0.724436,-5.543487 0.47242,-2.01562 1.228527,-4.598984 2.582908,-6.866695 1.354382,-2.267712 3.307498,-4.220828 5.328967,-5.688975 2.021469,-1.468148 4.215191,-2.500488 6.797802,-3.476831 2.582611,-0.976342 5.60687,-1.921422 8.189554,-2.267851 2.582683,-0.346428 4.724771,-0.09442 6.835051,-0.03144 2.11028,0.06298 4.189373,-0.06303 5.543707,-0.06301 1.354334,2.1e-5 1.984378,0.126029 3.023636,-0.03146 1.039257,-0.157487 2.488634,-0.598602 4.283761,-0.81904 1.795127,-0.220438 3.937458,-0.220438 6.488561,0.283495 2.551103,0.503932 5.512281,1.511993 8.0635,2.897844 2.551218,1.385851 4.693197,3.149833 6.992497,6.205058 2.2993,3.055224 4.75618,7.402005 6.55157,10.709311 1.7954,3.307305 2.92931,5.575118 3.4963,7.685451 0.56699,2.110333 0.56699,3.937125 -0.315,6.772184 -0.882,2.83506 -2.64564,6.61429 -3.49729,9.354763 -0.85164,2.740473 -0.78641,4.567134 0.15866,6.52028 0.94507,1.953147 2.77169,4.094703 3.43321,5.921447 0.66152,1.826744 0.15755,3.338637 -0.37797,4.945214 -0.53553,1.60658 -1.10237,3.30712 -1.92139,5.19719 -0.81902,1.89008 -1.88975,3.96856 -2.61427,5.63805 -0.72452,1.66949 -1.10244,2.92922 -0.81891,4.50446 0.28352,1.57524 1.22823,3.46465 2.29927,4.75616 1.07103,1.29152 2.26789,1.98443 3.24425,2.74033 0.97637,0.75589 1.73237,1.5749 2.20483,2.55124 0.47246,0.97635 0.66144,2.11026 0.50401,3.14973 -0.15744,1.03948 -0.66131,1.98424 -1.79546,2.67739 -1.13415,0.69315 -2.89745,1.13397 -3.96851,1.79539 -1.07105,0.66142 -1.44896,1.54321 -1.35652,3.04777 0.0924,1.50456 0.66333,3.66124 1.23037,4.92129 0.56705,1.26005 1.13396,1.63799 1.63784,2.39379 0.50389,0.7558 0.94491,1.88985 0.69304,2.48838 -0.25187,0.59853 -1.1967,0.66152 -2.55142,0.4725 -1.35473,-0.18902 -3.118093,-0.62986 -4.409643,-1.22838 -1.291551,-0.59853 -2.11041,-1.3544 -2.614401,-2.36246 -0.503992,-1.00806 -0.692978,-2.26797 -0.88196,-3.21283 -0.188981,-0.94485 -0.378002,-1.57492 -1.228058,-1.51202 -0.850056,0.0629 -2.362371,0.81906 -3.496443,1.82705 -1.134071,1.00799 -1.889866,2.26764 -2.614508,2.51968 -0.724641,0.25204 -1.417423,-0.50372 -2.047401,-1.4802 -0.629977,-0.97648 -1.196952,-2.17343 -1.480406,-3.68532 -0.283455,-1.51189 -0.283455,-3.33895 -0.62991,-4.94517 -0.346455,-1.60622 -1.03951,-2.99233 -1.669447,-4.66168 -0.629937,-1.66936 -1.196946,-3.62239 -1.417406,-6.07915 -0.220461,-2.45676 -0.09446,-5.41784 0.09455,-7.46518 0.189005,-2.04733 0.441011,-3.18136 0.442641,-4.27657 0.0016,-1.09521 -0.253728,-2.18048 -0.505665,-3.25121"
       id="path838"
       inkscape:connector-curvature="0"
       inkscape:path-effect="#path-effect840"
       inkscape:original-d="m 55.324792,105.63502 c 0.534803,2.18243 1.069343,4.36513 1.603616,6.5481 -0.133382,2.85086 -0.267004,5.70149 -0.400905,8.55262 -0.445227,1.55896 -0.890632,3.20697 -1.336346,4.81086 -0.489826,0.40071 -0.979723,0.80154 -1.469983,1.20271 -0.311732,1.02487 -0.623364,2.13789 -0.935442,3.20723 0.579519,1.29192 1.158433,2.58334 1.737251,3.87541 -0.489775,0.22248 -0.979723,0.44519 -1.469983,0.66818 -1.559821,-0.26771 -3.117879,-0.53481 -4.677216,-0.80181 -0.757103,-0.66853 -1.514264,-1.33661 -2.271792,-2.00452 0.133903,-1.2921 0.267536,-2.67296 0.400904,-4.00905 -0.04427,0.40056 -0.08882,0.89064 -0.133633,1.33635 -0.08888,1.11408 -0.177916,2.22698 -0.267271,3.34087 -0.489852,0.26707 -0.979723,0.53427 -1.46998,0.80181 2.64e-4,0.84663 2.64e-4,1.69244 0,2.53906 0.579527,0.80179 1.15843,1.60335 1.737251,2.40542 -0.133379,1.20253 -0.267007,2.40517 -0.400904,3.60814 -0.133403,0.44529 -0.267005,0.89064 -0.400905,1.33635 -0.490077,0.13346 -0.979723,0.267 -1.469982,0.40091 -0.490043,-0.49058 -0.979723,-0.98026 -1.469983,-1.46999 -0.534273,-0.44571 -1.068814,-0.89116 -1.603616,-1.33634 -1.425244,-0.26755 -2.85061,-0.53481 -4.276312,-0.80181 -1.06897,-1.15861 -2.137894,-2.31661 -3.207237,-3.47451 0.312076,-1.3366 0.623896,-2.67296 0.935445,-4.00904 0.490146,-0.53468 0.980252,-1.06934 1.469983,-1.60362 2.64e-4,0.0888 2.64e-4,0.17792 0,0.26727 -0.848604,1.51876 -1.692445,3.02879 -2.539061,4.54358 -0.57894,0.44528 -1.157904,0.89064 -1.737251,1.33635 -1.515034,-0.0448 -3.028792,-0.17844 -4.543584,-0.26727 -1.247197,-0.93586 -2.49425,-1.87115 -3.741773,-2.80633 -0.133374,-0.66846 -0.267005,-1.33661 -0.400904,-2.00452 0.267453,0.13333 0.534804,0.267 0.801809,0.4009 1.336083,-2.6e-4 2.672959,-2.6e-4 4.009041,0 0.801915,-0.75737 1.603883,-1.51479 2.405428,-2.27179 0.133853,-0.8018 0.267533,-1.60388 0.400904,-2.40542 -0.04426,-0.62366 -0.08882,-1.24752 -0.133635,-1.87089 -0.756703,-0.89081 -1.514264,-1.78206 -2.271792,-2.67269 -1.202418,-0.62388 -2.40516,-1.24753 -3.608138,-1.87089 -1.158,0.26703 -2.316071,0.53427 -3.474504,0.80181 -1.336439,-0.35672 -2.67243,-0.71298 -4.009042,-1.06908 -0.757102,-0.75763 -1.514263,-1.51479 -2.271791,-2.27179 -0.222461,-1.0248 -0.445185,-2.04933 -0.668174,-3.0736 0.17841,-1.55904 0.356624,-3.2075 0.534539,-4.81085 0.62378,-1.11369 1.247522,-2.22751 1.870887,-3.34087 1.202638,-0.62372 2.40569,-1.15843 3.608138,-1.73725 -0.445067,0.356 -0.890634,0.71245 -1.336348,1.06907 -0.579196,0.53463 -1.157903,1.06882 -1.737251,1.60362 -0.222566,1.55955 -0.445185,3.11788 -0.668174,4.67722 0.534905,0.66804 1.069342,1.33608 1.603617,2.00452 1.336677,0.44521 2.67296,0.89063 4.009043,1.33635 1.781849,-0.31204 3.563858,-0.6239 5.345391,-0.93545 0.178414,-1.02462 0.267534,-2.04933 0.400902,-3.07359 -0.534119,-1.73702 -1.068813,-3.47477 -1.603616,-5.21176 0.08935,-0.802 0.178445,-1.60388 0.267269,-2.40543 0.356495,-0.93537 0.712984,-1.87115 1.069078,-2.80633 1.217941,-2.117723 2.436448,-4.236631 3.654275,-6.354552 0.378184,-1.574932 0.756218,-3.150065 1.13393,-4.724701 -0.881507,-2.078726 -1.763626,-4.158004 -2.645834,-6.236608 -0.503674,1.00761 -1.007673,2.015609 -1.511906,3.023809 0.37836,0.692912 0.756217,1.38565 1.133931,2.078871 0.882327,0.251751 1.890143,0.503703 2.834819,0.755952 -0.125703,0.755541 -0.251719,1.511639 -0.377975,2.267857 -0.314841,-2.64e-4 -0.755687,-2.64e-4 -1.133928,0 -0.945338,-0.378505 -1.889617,-0.756218 -2.834822,-1.13393 -0.944814,-0.693319 -1.889617,-1.386176 -2.834822,-2.078868 -0.251732,-1.323245 -0.503704,-2.646098 -0.755952,-3.96875 1.008043,-1.071031 2.016137,-2.14213 3.023809,-3.212798 1.511786,-1.007944 3.024073,-2.016136 4.535715,-3.023809 0.06325,-3.086447 2.64e-4,-6.173875 0,-9.260417 -0.06273,-2.708862 -0.125728,-5.417923 -0.18899,-8.126486 0.189236,-1.449036 0.378243,-2.898085 0.566965,-4.346729 0.756063,-2.582576 1.512171,-5.165939 2.267858,-7.74851 1.952903,-1.952903 3.906017,-3.90602 5.858632,-5.858632 2.078852,-1.008063 4.283993,-2.016138 6.425594,-3.023809 3.023623,-0.945065 6.047882,-1.890146 9.07143,-2.83482 2.141905,0.251693 4.283993,0.503703 6.425594,0.755952 2.07891,-0.126244 4.158003,-0.252249 6.236607,-0.377976 0.63014,0.125709 1.260184,0.251719 1.889882,0.377976 1.448705,-0.441095 2.898081,-0.882211 4.346725,-1.322917 2.141662,-2.65e-4 4.283993,-2.65e-4 6.425594,0 2.960714,1.007546 5.921891,2.015609 8.882441,3.023809 2.142017,1.76353 4.283996,3.527512 6.425594,5.291667 2.45708,4.346405 4.913954,8.693187 7.370534,13.040177 1.13422,2.267638 2.26813,4.53545 3.40179,6.803572 0.0633,1.952705 2.6e-4,3.779497 0,5.669643 -1.76387,3.780028 -3.52751,7.559259 -5.29167,11.339285 0.0633,1.700773 0.12626,3.527515 0.18899,5.291666 1.82741,2.141911 3.65403,4.283467 5.48065,6.425597 -0.5037,1.511654 -1.00767,3.023544 -1.5119,4.535715 -0.56682,1.700984 -1.13366,3.401524 -1.70089,5.102674 -1.07087,2.079 -2.1416,4.15748 -3.2128,6.23661 -0.37777,1.25985 -0.75569,2.51958 -1.13393,3.77976 0.94544,1.89009 1.89015,3.7795 2.83482,5.66964 1.19726,0.69274 2.39412,1.38565 3.59078,2.07887 0.75616,0.81863 1.51216,1.63764 2.26785,2.45685 0.18926,1.13368 0.37824,2.26759 0.56697,3.40178 -0.5038,0.94486 -1.00767,1.88962 -1.51191,2.83483 -1.76421,0.44085 -3.52751,0.88168 -5.29166,1.32291 -0.37778,0.88184 -0.75569,1.76363 -1.13393,2.64584 0.50441,2.14237 1.13419,4.28346 1.70089,6.42559 0.56728,0.37775 1.13419,0.75569 1.70089,1.13393 0.44119,1.13354 0.88221,2.26759 1.32292,3.40179 -0.94479,0.0627 -1.88962,0.12572 -2.83482,0.18898 -1.76415,-0.44136 -3.527514,-0.88221 -5.291668,-1.32291 -0.818772,-0.7563 -1.637633,-1.51217 -2.456844,-2.26786 -0.188727,-1.2602 -0.377714,-2.52011 -0.566965,-3.77976 -0.18869,-0.63012 -0.377711,-1.26019 -0.566965,-1.88988 -1.511231,0.75548 -3.023545,1.51164 -4.535715,2.26786 -0.755846,1.25991 -1.511639,2.51957 -2.267855,3.77976 -0.692864,-0.75641 -1.385649,-1.51217 -2.078871,-2.26786 -0.56669,-1.19717 -1.133663,-2.39412 -1.700892,-3.59078 2.64e-4,-1.82697 2.64e-4,-3.65403 0,-5.48065 -0.692592,-1.38598 -1.385647,-2.77209 -2.078869,-4.15774 -0.566655,-1.95299 -1.133665,-3.90602 -1.700892,-5.85863 0.126246,-2.96081 0.252248,-5.92189 0.377976,-8.88244 0.252224,-1.13409 0.504232,-2.26812 0.755951,-3.40179 -0.188671,-1.0709 -0.503703,-2.14213 -0.755951,-3.21279" />
    <path
       style="fill:#f53a37;fill-opacity:1;stroke:#000000;stroke-width:0.96499997;stroke-linecap:butt;stroke-linejoin:miter;stroke-miterlimit:4;stroke-dasharray:none;stroke-opacity:1"
       d="m 16.704345,142.38457 c 1.737481,-2.18299 3.474732,-4.36569 5.234159,-5.90235 1.759427,-1.53666 3.541509,-2.4277 5.805089,-3.51373 2.263579,-1.08603 4.863606,-2.29938 9.050466,-3.01202 4.186861,-0.71264 9.889291,-0.89084 12.479627,-4.39835 2.590337,-3.50751 2.079769,-10.20997 2.514972,-14.66566 0.435203,-4.45569 1.821164,-6.59763 3.868397,-8.01488 2.047233,-1.41725 4.756447,-2.1103 9.228769,-2.11029 4.472321,1e-5 10.709647,0.69305 14.709777,1.60648 4.000131,0.91343 5.764085,2.0474 7.307406,3.84268 1.543321,1.79527 2.866285,4.2522 2.992306,8.85094 0.126022,4.59874 -0.94487,11.33906 -0.755811,15.02451 0.189059,3.68546 1.637903,4.31539 3.275748,4.88233 1.637844,0.56694 3.464887,1.07095 5.102737,1.41741 1.637851,0.34646 3.086903,0.53547 4.567213,0.59845 1.48031,0.063 2.99245,-2e-5 4.59865,0.18895 1.6062,0.18898 3.30741,0.63004 4.66165,1.60634 1.35425,0.9763 2.36229,2.48837 3.37027,4.00033"
       id="path826"
       inkscape:connector-curvature="0"
       inkscape:path-effect="#path-effect828"
       inkscape:original-d="m 16.704345,142.38457 c 1.737516,-2.18296 3.474764,-4.36566 5.211756,-6.5481 1.781777,-0.89102 3.563858,-1.78206 5.345391,-2.67269 2.761556,-1.2473 5.345654,-2.49478 8.018086,-3.74178 5.701334,-0.17842 11.403764,-0.35662 17.105249,-0.53454 -0.578382,-6.83246 -1.031089,-13.53933 -1.547029,-20.30859 1.386125,-2.14206 2.77209,-4.284 4.157736,-6.4256 2.708707,-0.69312 5.417923,-1.38617 8.126489,-2.07887 6.236153,0.69262 12.47348,1.38565 18.70982,2.07887 1.764088,1.13362 3.528044,2.26759 5.291667,3.40179 1.323133,2.45649 2.646098,4.91342 3.96875,7.37053 -1.070708,6.74057 -2.141599,13.48089 -3.212796,20.22173 1.449237,0.62972 2.898082,1.25965 4.346726,1.88988 1.82699,0.50366 3.654033,1.00767 5.480653,1.5119 1.449033,0.18871 2.898087,0.37772 4.346727,0.56697 1.51193,-0.0633 3.02407,-0.12626 4.53571,-0.18899 1.70085,0.44063 3.40206,0.88168 5.10268,1.32292 1.0081,1.51147 2.01614,3.02354 3.02381,4.53571"
       sodipodi:nodetypes="cccccccccccccccccc" />
    <path
       style="fill:#851f1d;fill-opacity:1;stroke:none;stroke-width:0.26458332px;stroke-linecap:butt;stroke-linejoin:miter;stroke-opacity:1"
       d="m 55.95869,115.4424 c 0.986124,1.25735 2.613116,2.1448 4.338697,2.88433 1.725581,0.73952 3.549885,1.33119 5.743823,1.23254 2.193938,-0.0986 4.757908,-0.88755 7.44474,-1.7503 2.686831,-0.86274 5.497434,-1.79961 7.075036,-2.56388 1.577602,-0.76426 1.922765,-1.35597 2.095232,-2.46482 0.172467,-1.10886 0.172467,-2.73671 -9.1e-5,-3.89519 -0.172558,-1.15848 -0.517733,-1.84883 -1.528141,-2.09533 -1.010407,-0.24649 -2.686958,-0.0493 -5.201681,0.49314 -2.514723,0.54238 -5.866728,1.42968 -9.441391,1.75018 -3.574663,0.32051 -7.370625,0.074 -9.441395,0.29573 -2.070771,0.22172 -2.415871,0.91192 -2.415892,2.07097 -2e-5,1.15904 0.344939,2.78529 1.331063,4.04263 z"
       id="path2666"
       inkscape:connector-curvature="0"
       inkscape:path-effect="#path-effect2668"
       inkscape:original-d="m 55.317728,115.81225 c 1.627256,0.88719 3.254248,1.77464 4.880978,2.66235 1.824363,0.59134 3.64867,1.183 5.472607,1.7749 2.563783,-0.78904 5.127754,-1.57795 7.691236,-2.36653 2.810177,-0.93691 5.620782,-1.87377 8.430776,-2.81026 0.345345,-0.59183 0.690504,-1.18354 1.03536,-1.7749 2.64e-4,-1.6264 2.64e-4,-3.25425 0,-4.88098 -0.3448,-0.69039 -0.689976,-1.38074 -1.03536,-2.07072 -1.675773,0.19692 -3.352324,0.39416 -5.028882,0.59164 -3.352909,0.88734 -6.704915,1.77463 -10.057771,2.66235 -3.796403,-0.2468 -7.592364,-0.4933 -11.388944,-0.73954 -0.344876,0.69001 -0.689975,1.38021 -1.035357,2.07071 0.345541,1.62748 0.690502,3.25372 1.035357,4.88098 z" />
    <path
       style="fill:#f53a37;fill-opacity:1;stroke:#000000;stroke-width:0.66500002;stroke-linecap:butt;stroke-linejoin:miter;stroke-miterlimit:4;stroke-dasharray:none;stroke-opacity:1"
       d="m 39.120557,69.206065 c -0.440963,4.34672 -1.259911,11.843247 -1.795382,16.756983 -0.535471,4.913736 -0.787445,7.244499 -0.188927,9.481106 0.598517,2.236608 2.047246,4.378206 4.567183,6.677646 2.519938,2.29943 6.110614,4.75621 9.737053,6.69843 3.626439,1.94221 7.397947,3.41246 11.429689,3.8534 4.031742,0.44094 8.378631,-0.12605 12.788211,-1.66944 4.40958,-1.54338 8.882601,-4.0634 12.284287,-6.39421 3.401686,-2.33082 5.7327,-4.47283 7.559457,-6.740579 1.826756,-2.267748 3.149829,-4.661879 3.811201,-8.252314 C 99.9747,86.026653 99.9747,81.238324 99.659721,76.79724 99.344741,72.356157 98.714747,68.26119 97.486365,64.513079 96.257982,60.764967 94.430999,57.362999 91.186847,54.496787 87.942694,51.630574 83.280857,49.299656 77.957722,48.60666 72.634588,47.913665 66.6501,48.858584 61.767824,50.181494 c -4.882276,1.322911 -8.661849,3.023719 -12.158279,5.13415 -3.496429,2.11043 -6.708955,4.630058 -8.346994,6.488471 -1.638039,1.858413 -1.70103,3.055229 -2.141994,7.40195 z"
       id="path2467"
       inkscape:connector-curvature="0"
       inkscape:path-effect="#path-effect2469"
       inkscape:original-d="m 39.49851,66.056546 c -0.818681,7.496265 -1.63763,14.992792 -2.456844,22.489583 -0.25173,2.33068 -0.503703,4.661443 -0.755951,6.992559 1.449353,2.141869 2.898081,4.283467 4.346725,6.425592 3.591137,2.45665 7.181813,4.91343 10.77232,7.37054 3.653978,1.44862 7.433797,2.89755 11.150298,4.34673 4.346827,-0.56721 8.693716,-1.1342 13.04018,-1.7009 4.472678,-2.51993 8.9457,-5.03994 13.418153,-7.55952 2.330956,-2.14198 4.661972,-4.28399 6.992559,-6.425595 1.323026,-2.393831 2.646098,-4.787963 3.96875,-7.181548 2.65e-4,-4.787334 2.65e-4,-9.575663 0,-14.363094 -0.62966,-4.094782 -1.259654,-8.189749 -1.889879,-12.284226 -1.826524,-3.401869 -3.653507,-6.803837 -5.480655,-10.205357 -4.661313,-2.331053 -9.32315,-4.661972 -13.985119,-6.992559 -5.984494,0.944695 -11.968982,1.889614 -17.95387,2.83482 -3.779684,1.700712 -7.559257,3.40152 -11.339285,5.10268 -3.212804,2.519788 -6.42533,5.039415 -9.638393,7.559521 -0.06274,1.196769 -0.125727,2.393585 -0.188989,3.590774 z" />
    <path
       style="fill:#ffffff;fill-opacity:1;stroke:none;stroke-width:0.26458332px;stroke-linecap:butt;stroke-linejoin:miter;stroke-opacity:1"
       d="m 59.597123,67.309383 c 0.3312,0.61016 0.854137,1.307409 1.220195,2.248643 0.366058,0.941234 0.575219,2.12648 0.400909,4.009229 -0.174309,1.882748 -0.732008,4.462102 -1.411864,7.286131 -0.679856,2.824029 -1.481593,5.89155 -2.353081,7.652201 -0.871488,1.76065 -1.812675,2.213813 -3.416737,2.597409 -1.604062,0.383595 -3.869348,0.69725 -5.420823,0.767005 -1.551476,0.06976 -2.388064,-0.104534 -3.538823,-1.883003 -1.15076,-1.778469 -2.614627,-5.159304 -3.399007,-8.000604 -0.784379,-2.841301 -0.88897,-5.142301 -0.540325,-7.355977 0.348646,-2.213675 1.150567,-4.340509 2.179007,-5.787174 1.02844,-1.446665 2.283671,-2.213751 3.608272,-2.858605 1.324601,-0.644854 2.719439,-1.167919 4.200892,-1.499048 1.481453,-0.331129 3.050617,-0.47061 4.375191,-0.24402 1.324573,0.226589 2.405502,0.819356 3.015517,1.377016 0.610016,0.557659 0.749477,1.080637 1.080677,1.690797 z"
       id="path2526"
       inkscape:connector-curvature="0"
       inkscape:path-effect="#path-effect2528"
       inkscape:original-d="m 59.405421,67.22234 c 0.523198,0.696981 1.046134,1.39423 1.568805,2.09174 0.209452,1.185127 0.418613,2.370373 0.627523,3.555958 -0.557633,2.580008 -1.115333,5.159362 -1.673395,7.739438 -0.801663,3.067987 -1.603401,6.135508 -2.405499,9.203658 -0.941115,0.452991 -1.882301,0.906156 -2.82385,1.35963 -2.266553,0.313603 -4.531839,0.627259 -6.798156,0.941285 -0.836539,-0.174599 -1.673127,-0.348888 -2.510086,-0.522936 -1.464305,-3.382722 -2.928173,-6.763557 -4.392655,-10.14494 -0.10432,-2.301092 -0.20891,-4.602093 -0.313762,-6.902743 0.802011,-2.126634 1.603931,-4.253468 2.405502,-6.379806 1.25512,-0.767122 2.510351,-1.534207 3.765132,-2.300914 1.394412,-0.523071 2.789251,-1.046136 4.18348,-1.568807 1.56871,-0.139682 3.137874,-0.279162 4.706414,-0.418346 1.080802,0.592285 2.16173,1.185053 3.242199,1.777979 0.139702,0.522626 0.279162,1.045604 0.418348,1.568804 z" />
    <path
       style="opacity:1;fill:#b03511;fill-opacity:1;stroke:#000000;stroke-width:0.995;stroke-linecap:round;stroke-linejoin:bevel;stroke-miterlimit:4;stroke-dasharray:none;stroke-dashoffset:0;stroke-opacity:1"
       id="path2530"
       sodipodi:type="arc"
       sodipodi:cx="55.966415"
       sodipodi:cy="75.873329"
       sodipodi:rx="3.869719"
       sodipodi:ry="9.5697107"
       sodipodi:start="6.2743714"
       sodipodi:end="6.2740921"
       sodipodi:open="true"
       d="m 59.835984,75.788984 a 3.869719,9.5697107 0 0 1 -3.835191,9.653678 3.869719,9.5697107 0 0 1 -3.903942,-9.483651 3.869719,9.5697107 0 0 1 3.834647,-9.655003 3.869719,9.5697107 0 0 1 3.904476,9.482303"
       transform="rotate(0.9513013)" />
    <path
       style="fill:#ffffff;fill-opacity:1;stroke:none;stroke-width:0.26952475;stroke-linecap:butt;stroke-linejoin:miter;stroke-miterlimit:4;stroke-dasharray:none;stroke-opacity:1"
       d="m 71.119114,73.796389 c 0.09247,-0.768548 0.277364,-2.305348 0.797389,-3.741804 0.520025,-1.436456 1.375337,-2.773056 2.369085,-3.808586 0.993748,-1.03553 2.126508,-1.770692 3.80182,-2.238297 1.675312,-0.467605 3.894701,-0.668113 5.812814,-0.389716 1.918114,0.278397 3.536183,1.035761 4.795685,2.060195 1.259503,1.024434 2.16094,2.316328 2.854308,3.730609 0.693368,1.41428 1.178701,2.95101 1.409848,4.810827 0.231147,1.859817 0.208036,4.042278 -0.277303,6.124848 -0.485339,2.08257 -1.432821,4.064574 -2.449815,5.846506 -1.016994,1.781932 -2.10309,3.363022 -2.819338,4.177666 -0.716249,0.814644 -1.01707,0.856057 -2.370289,0.789185 -1.353219,-0.06687 -3.731507,-0.244882 -5.777087,-0.723761 -2.04558,-0.47888 -3.7557,-1.258334 -4.911414,-2.149333 -1.155715,-0.890999 -1.75659,-1.893191 -2.207502,-3.4205 -0.450911,-1.52731 -0.750909,-3.57323 -0.912679,-5.377235 -0.161771,-1.804005 -0.184887,-3.363248 -0.196441,-4.142652 -0.01156,-0.779405 -0.01155,-0.779405 0.08092,-1.547952 z"
       id="path2487"
       inkscape:connector-curvature="0"
       inkscape:path-effect="#path-effect2489"
       inkscape:original-d="m 71.026647,74.564936 c 0.185173,-1.537066 0.370069,-3.073866 0.554693,-4.610399 0.855261,-1.336361 1.710574,-2.672961 2.56545,-4.009044 1.132506,-0.735086 2.265266,-1.470247 3.397488,-2.204974 2.218421,-0.20066 4.437809,-0.401169 6.656301,-0.601355 1.617908,0.756896 3.235977,1.51426 4.853555,2.271789 0.901584,1.291447 1.803022,2.583341 2.704123,3.87541 0.48565,1.536605 0.970984,3.073334 1.456066,4.610399 -0.02284,2.182675 -0.04595,4.365136 -0.06934,6.548101 -0.947441,1.98223 -1.894923,3.964234 -2.842798,5.946749 -1.086169,1.581335 -2.172267,3.162424 -3.258813,4.744035 -0.346474,0.04429 -0.646866,0.08882 -0.970711,0.133633 -2.382541,-0.178613 -4.760829,-0.356624 -7.141657,-0.534538 -1.710206,-0.779883 -3.420326,-1.559338 -5.1309,-2.33861 -0.600685,-1.002593 -1.201559,-2.004785 -1.802748,-3.00678 -0.323271,-2.049161 -0.600643,-4.098399 -0.901376,-6.1472 -0.02284,-1.559168 -0.04595,-3.118411 -0.06934,-4.677216 z" />
    <path
       style="opacity:1;fill:#b03511;fill-opacity:1;stroke:#000000;stroke-width:0.99500817;stroke-linecap:round;stroke-linejoin:bevel;stroke-miterlimit:4;stroke-dasharray:none;stroke-dashoffset:0;stroke-opacity:1"
       id="path2495"
       sodipodi:type="arc"
       sodipodi:cx="82.95977"
       sodipodi:cy="71.582581"
       sodipodi:rx="4.1319504"
       sodipodi:ry="10.300817"
       sodipodi:start="6.2743714"
       sodipodi:end="6.2740921"
       sodipodi:open="true"
       d="m 87.09156,71.491791 a 4.1319504,10.300817 0 0 1 -4.095083,10.3912 4.1319504,10.300817 0 0 1 -4.168492,-10.208183 4.1319504,10.300817 0 0 1 4.094502,-10.392625 4.1319504,10.300817 0 0 1 4.169063,10.206731"
       transform="matrix(0.9979322,0.06427537,-0.05854901,0.99828454,0,0)" />
    <path
       style="fill:none;stroke:#000000;stroke-width:0.565;stroke-linecap:butt;stroke-linejoin:miter;stroke-miterlimit:4;stroke-dasharray:none;stroke-opacity:1"
       d="m 57.329313,132.36197 c 0.04219,0.80168 0.08908,1.69245 0.423245,2.56131 0.334168,0.86886 0.957611,1.75949 1.581278,2.65044"
       id="path830"
       inkscape:connector-curvature="0"
       inkscape:path-effect="#path-effect832"
       inkscape:original-d="m 57.329313,132.36197 c 0.04481,0.80154 0.08935,1.69244 0.133635,2.53906 0.624078,0.8909 1.247521,1.78153 1.870888,2.67269" />
    <path
       style="fill:none;stroke:#000000;stroke-width:0.76499999;stroke-linecap:butt;stroke-linejoin:miter;stroke-miterlimit:4;stroke-dasharray:none;stroke-opacity:1"
       d="m 79.245414,131.6938 c -0.417428,0.92762 -0.801666,1.78148 -1.309023,2.79692 -0.507358,1.01544 -1.140778,2.19179 -1.764575,3.35027"
       id="path834"
       inkscape:connector-curvature="0"
       inkscape:path-effect="#path-effect836"
       inkscape:original-d="m 79.245414,131.6938 c -0.40064,0.93517 -0.801545,1.78153 -1.202714,2.67269 -0.579025,1.15832 -1.246992,2.31607 -1.870884,3.4745" />
    <path
       style="fill:#ffffff;stroke:#000000;stroke-width:0.465;stroke-linecap:butt;stroke-linejoin:miter;stroke-miterlimit:4;stroke-dasharray:none;stroke-opacity:1"
       d="m 77.217448,96.530895 c 0.03725,0.03081 0.07416,0.06133 0.339215,0.620335 0.26505,0.559 0.75819,1.646549 0.933097,2.357797 0.174907,0.711253 0.0314,1.046433 -0.531737,0.880383 -0.563135,-0.16606 -1.54583,-0.833709 -2.528581,-1.501399"
       id="path2479"
       inkscape:connector-curvature="0"
       inkscape:path-effect="#path-effect2481"
       inkscape:original-d="m 77.217448,96.530895 c 0.03749,0.03052 0.0744,0.06105 0.111209,0.09197 0.493376,1.08722 0.986515,2.174769 1.479377,3.262553 -0.143241,0.334912 -0.286747,0.670102 -0.430517,1.005542 -0.982423,-0.66791 -1.965118,-1.335562 -2.948075,-2.002949"
       sodipodi:nodetypes="ccccc" />
    <path
       style="fill:none;stroke:#000000;stroke-width:1.26499999;stroke-linecap:round;stroke-linejoin:miter;stroke-miterlimit:4;stroke-dasharray:none;stroke-opacity:1"
       d="m 77.863093,95.538688 c -0.881763,1.511593 -1.763707,3.023497 -3.34619,4.064961 -1.582483,1.041461 -3.835045,1.604611 -6.103213,2.171651"
       id="path2471"
       inkscape:connector-curvature="0"
       inkscape:path-effect="#path-effect2473"
       inkscape:original-d="m 77.863093,95.538688 c -0.881679,1.511642 -1.763622,3.023547 -2.645833,4.535712 -2.268061,0.62983 -4.535448,1.13367 -6.80357,1.7009" />
    <path
       style="fill:none;stroke:#000000;stroke-width:1.26499999;stroke-linecap:round;stroke-linejoin:miter;stroke-miterlimit:4;stroke-dasharray:none;stroke-opacity:1"
       d="m 53.861607,95.538688 c 1.103326,1.409806 2.267828,2.897783 3.905857,3.905769 1.638028,1.007983 3.77984,1.574933 5.921524,2.141853"
       id="path2475"
       inkscape:connector-curvature="0"
       inkscape:path-effect="#path-effect2477"
       inkscape:original-d="m 53.861607,95.538688 c 1.134192,1.38565 2.268122,2.897553 3.401785,4.346729 2.142183,0.566713 4.283995,1.133663 6.425596,1.700893" />
    <path
       style="fill:#771412;fill-opacity:1;stroke:#000000;stroke-width:0.875;stroke-linecap:butt;stroke-linejoin:miter;stroke-miterlimit:4;stroke-dasharray:none;stroke-opacity:1"
       d="m 65.963635,83.991719 c 0.247351,0.266757 0.742051,0.800269 1.061765,1.355888 0.319715,0.555619 0.464521,1.133658 0.199094,1.889559 -0.265428,0.755901 -0.94089,1.689235 -1.268098,2.131463 -0.327207,0.442227 -0.30109,0.382086 -0.288697,-0.674142 0.01239,-1.056227 0.01239,-2.98023 0.01857,-3.974877 0.0062,-0.994647 0.01825,-0.994647 0.02414,-0.994648 0.0059,0 0.0059,0 0.253232,0.266757 z"
       id="path2483"
       inkscape:connector-curvature="0"
       inkscape:path-effect="#path-effect2485"
       inkscape:original-d="m 65.716284,83.724962 c 0.494987,0.533249 0.989688,1.066761 1.484103,1.600539 0.145058,0.577642 0.289866,1.155681 0.434369,1.733916 -0.675629,0.933694 -1.351089,1.86703 -2.027064,2.800941 0.02164,-0.04944 0.04776,-0.10958 0.0724,-0.16672 2.87e-4,-2.055378 2.87e-4,-3.979381 10e-7,-5.968674 0.01235,-2.65e-4 0.02442,-2.65e-4 0.0362,-2e-6 z"
       sodipodi:nodetypes="ccccccc" />
    <path
       style="fill:none;stroke:#000000;stroke-width:4.4031496;stroke-linecap:butt;stroke-linejoin:miter;stroke-miterlimit:4;stroke-dasharray:none;stroke-opacity:1"
       d="m 202.69727,285.55469 c -2.52001,0.0217 -5.00242,0.10486 -7.35743,0.26953 -9.42002,0.65868 -16.80316,2.63502 -21.80859,4.54492 -5.00543,1.9099 -7.64113,3.75568 -9.15625,5.86328 -1.51512,2.1076 -1.90999,4.4786 -1.91016,6.71875 -1.6e-4,2.24015 0.39465,4.34924 1.38282,7.24805 0.98816,2.8988 2.56847,6.58776 4.54492,10.01367 1.97645,3.42591 4.34884,6.5892 6.7207,9.22461 2.37186,2.63541 4.74385,4.74362 6.98438,6.19336 2.24052,1.44974 4.34671,2.23913 9.41992,2.83203 5.07321,0.5929 13.10892,0.98865 19.5664,0.52734 6.45749,-0.4613 11.33146,-1.77905 14.75782,-4.2832 3.42636,-2.50415 5.40306,-6.1931 7.70898,-11.5957 2.30593,-5.40261 4.94053,-12.51616 6.32422,-17.85352 0.47827,-1.84484 0.79843,-3.46394 1.01562,-4.91601 0.16001,1.09378 0.77001,1.88578 2.9961,2.32812 3.3143,0.65858 11.92095,0.86981 14.44531,0.96289 2.52436,0.0931 2.52922,0.14595 2.52735,0.1211 -2e-4,-0.003 0.006,-0.12519 0.006,-0.13086 0.0749,0.94217 0.18334,1.89969 0.35547,2.88672 0.98809,5.66589 3.49248,11.99217 5.46875,16.60351 1.97628,4.61134 3.42544,7.50853 7.37891,9.61719 3.95346,2.10866 10.40825,3.42566 16.86523,4.15039 6.45699,0.72473 12.91109,0.85717 17.58985,-0.46094 4.67875,-1.31811 7.5763,-4.08329 10.80468,-7.9707 3.22842,-3.88741 6.78647,-8.89474 9.68555,-13.90234 2.89909,-5.00764 5.13747,-10.01133 6.52149,-13.57032 1.38401,-3.55899 1.91134,-5.66734 -0.13086,-7.44531 -2.0422,-1.77797 -6.65615,-3.22864 -11.72852,-4.2168 -5.07237,-0.98816 -10.60658,-1.5145 -18.31445,-2.10742 -5.7809,-0.44469 -12.78508,-0.92562 -19.17774,-0.88867 -2.13088,0.0123 -4.19436,0.0823 -6.12109,0.23047 -7.70694,0.59277 -13.24039,2.43583 -16.27148,5.86133 -0.11398,0.1288 -0.21727,0.2652 -0.32422,0.39843 -0.0412,-0.41564 -0.21924,-0.7718 -0.62696,-1.03711 -1.51891,-0.98837 -6.08197,-0.7678 -10.30664,-0.73632 -4.22466,0.0315 -8.1141,-0.12756 -10.05859,-0.20704 -1.19575,-0.0489 -1.65309,-0.0649 -1.81055,0.25977 -0.42118,-1.07285 -1.15087,-1.88056 -2.50195,-2.49805 -2.30527,-1.05358 -6.5195,-1.59706 -14.22852,-2.18164 -5.78176,-0.43843 -13.67629,-0.91867 -21.23632,-0.85351 z m 133.89453,12.21289 c 4.53545,2.44999 8.91958,4.81755 13.95898,7.48242 5.0394,2.66487 10.65806,5.58705 16.27734,8.50781 z m -173.85742,2.29101 c -1.95349,1.47172 -3.68999,3.02896 -5.29688,4.59571 z m -5.29688,4.59571 -24.62109,21.35742 c 3.48508,-2.54364 7.75935,-5.87762 12.94336,-9.74219 3.81169,-2.84154 7.21452,-7.26351 11.67773,-11.61523 z"
       transform="scale(0.26458333)"
       id="path2499"
       inkscape:connector-curvature="0" />
    <path
       style="fill:none;stroke:#000000;stroke-width:1.26499999;stroke-linecap:round;stroke-linejoin:miter;stroke-miterlimit:4;stroke-dasharray:none;stroke-opacity:1"
       d="m 73.098215,68.016831 c 0.356523,-0.690763 0.712882,-1.381209 1.581264,-2.160484 0.868382,-0.779276 2.249907,-1.6483 3.708566,-2.127059 1.458659,-0.47876 2.995804,-0.567869 4.32085,-0.411963 1.325045,0.155905 2.438872,0.556884 3.518969,1.11364 1.080096,0.556755 2.127045,1.269571 2.939927,2.026769 0.812883,0.757197 1.391997,1.559048 1.926543,2.706069 0.534546,1.147022 1.02451,2.639187 1.347481,4.020112 0.322971,1.380926 0.478861,2.65032 0.167034,4.677323 -0.311826,2.027003 -1.091221,4.810557 -2.071228,7.216098 -0.980008,2.405541 -2.160316,4.432107 -3.340939,6.459213"
       id="path2491"
       inkscape:connector-curvature="0"
       inkscape:path-effect="#path-effect2493"
       inkscape:original-d="m 73.098215,68.016831 c 0.356624,-0.690711 0.712983,-1.381157 1.069078,-2.071338 1.380524,-0.868492 2.762049,-1.737516 4.142679,-2.605879 1.536718,-0.08933 3.073863,-0.178443 4.610399,-0.267269 1.113684,0.400566 2.227511,0.801545 3.340867,1.202714 1.04693,0.712356 2.093878,1.425173 3.140419,2.138156 0.579316,0.8015 1.15843,1.603351 1.737251,2.405425 0.490289,1.492081 0.980252,2.984246 1.469983,4.476763 0.156189,1.269402 0.312079,2.538796 0.46772,3.808593 -0.77941,2.784295 -1.558806,5.567849 -2.338607,8.352173 -1.180308,2.026756 -2.360617,4.053322 -3.541322,6.08038"
       sodipodi:nodetypes="ccccccccccc" />
    <path
       style="opacity:1;fill:#000000;fill-opacity:1;stroke:#000000;stroke-width:0.995;stroke-linecap:round;stroke-linejoin:bevel;stroke-miterlimit:4;stroke-dasharray:none;stroke-dashoffset:0;stroke-opacity:1"
       id="path2497"
       sodipodi:type="arc"
       sodipodi:cx="82.395355"
       sodipodi:cy="72.864159"
       sodipodi:rx="0.73210907"
       sodipodi:ry="7.1642098"
       sodipodi:start="6.2743714"
       sodipodi:end="6.2740921"
       sodipodi:open="true"
       d="m 83.127436,72.801015 a 0.73210907,7.1642098 0 0 1 -0.725577,7.227071 0.73210907,7.1642098 0 0 1 -0.738584,-7.099783 0.73210907,7.1642098 0 0 1 0.725474,-7.228063 0.73210907,7.1642098 0 0 1 0.738685,7.098774"
       transform="rotate(3.0213784)" />
    <path
       style="fill:#000000;fill-opacity:1;stroke:#000000;stroke-width:0.26458332px;stroke-linecap:butt;stroke-linejoin:miter;stroke-opacity:1"
       d="m 63.580501,76.82494 -0.339821,3.258473 6.138243,0.634973 c 0.168901,-0.572243 -0.305324,-1.924328 0.330004,-3.246114 l -0.707369,-0.431628 -1.963144,-0.03979 -3.362712,0.01614"
       id="path2523"
       inkscape:connector-curvature="0"
       sodipodi:nodetypes="ccccccc" />
    <path
       style="opacity:1;fill:#000000;fill-opacity:1;stroke:#000000;stroke-width:0.995;stroke-linecap:round;stroke-linejoin:bevel;stroke-miterlimit:4;stroke-dasharray:none;stroke-dashoffset:0;stroke-opacity:1"
       id="path2532"
       sodipodi:type="arc"
       sodipodi:cx="54.48983"
       sodipodi:cy="77.210403"
       sodipodi:rx="0.62752205"
       sodipodi:ry="7.0596228"
       sodipodi:start="6.2743714"
       sodipodi:end="6.2740921"
       sodipodi:open="true"
       d="m 55.117328,77.148181 a 0.62752205,7.0596228 0 0 1 -0.621923,7.121567 0.62752205,7.0596228 0 0 1 -0.633072,-6.996137 0.62752205,7.0596228 0 0 1 0.621835,-7.122543 0.62752205,7.0596228 0 0 1 0.633158,6.995142" />
    <path
       style="fill:none;stroke:#000000;stroke-width:1.06500006;stroke-linecap:round;stroke-linejoin:miter;stroke-miterlimit:4;stroke-dasharray:none;stroke-opacity:1"
       d="m 60.032942,67.536101 c -0.627553,-0.836738 -1.255075,-1.673434 -2.074233,-2.300897 -0.819158,-0.627463 -1.830215,-1.045831 -2.998121,-1.237603 -1.167906,-0.191771 -2.4925,-0.156913 -3.869687,0.08712 -1.377186,0.244036 -2.806249,0.697153 -4.06142,1.307271 -1.255172,0.610119 -2.335666,1.376921 -3.242238,2.318312 -0.906572,0.941392 -1.638478,2.056678 -2.126645,3.102679 -0.488168,1.046001 -0.732138,2.021879 -0.88906,3.102816 -0.156922,1.080936 -0.226625,2.265878 -0.156896,3.800067 0.06973,1.534189 0.278853,3.41631 1.028461,5.490832 0.749608,2.074522 2.039355,4.340294 2.92836,5.821973 0.889004,1.481679 1.377059,2.178901 1.865168,2.8762"
       id="path2534"
       inkscape:connector-curvature="0"
       inkscape:path-effect="#path-effect2536"
       inkscape:original-d="m 60.032942,67.536101 c -0.627256,-0.836961 -1.254779,-1.673656 -1.882566,-2.510088 -1.010693,-0.418592 -2.02175,-0.836959 -3.033022,-1.255043 -1.324679,0.0346 -2.649273,0.06946 -3.974306,0.104587 -1.429385,0.453038 -2.858448,0.906155 -4.288068,1.35963 -1.080707,0.766876 -2.161201,1.533678 -3.242199,2.300914 -0.732046,1.11564 -1.463953,2.230925 -2.196325,3.346784 -0.24384,0.976148 -0.487809,1.952027 -0.73211,2.928437 -0.06948,1.185431 -0.139184,2.370373 -0.209174,3.555958 0.209489,1.882746 0.418613,3.764867 0.627523,5.647698 1.29033,2.266066 2.580076,4.531839 3.869719,6.798156 0.488355,0.697008 0.97641,1.39423 1.464217,2.09174" />
    <path
       style="opacity:1;fill:#591805;fill-opacity:1;stroke:#000000;stroke-width:3.2692914;stroke-linecap:round;stroke-linejoin:bevel;stroke-miterlimit:4;stroke-dasharray:none;stroke-opacity:1"
       d="m 291.65039,142.10938 c -2.92562,0.0216 -5.65299,0.21686 -8.19727,0.52929 -6.78472,0.83315 -12.2635,2.50048 -16.1914,3.09571 -3.9279,0.59522 -6.30899,0.11921 -11.42774,0.11914 -5.11874,-8e-5 -12.97726,0.47631 -20.95312,0.23828 -7.97586,-0.23804 -16.0707,-1.1902 -25.83203,0.11914 -9.76133,1.30933 -21.19208,4.8802 -30.95313,8.57031 -9.76104,3.69011 -18.05316,7.59172 -25.69336,13.14063 -7.6402,5.54889 -15.0217,12.93107 -20.14062,21.50195 -5.11892,8.57087 -7.9762,18.33503 -9.76172,25.95312 -1.78553,7.61809 -2.50013,13.09424 -2.73828,20.95117 -0.23815,7.85695 8e-5,18.0969 0.11914,29.04883 0.11905,10.95194 0.11829,22.62039 -2.73828,30.35743 -2.85657,7.73702 -8.57076,11.54665 -13.33203,15.4746 -4.761277,3.92796 -8.571168,7.97639 -10.000003,12.5 -1.428832,4.52362 -0.476936,9.52389 1.785156,13.33399 2.262089,3.8101 5.832437,6.42908 9.404297,8.45312 3.57186,2.02404 7.14109,3.45133 9.64258,4.16602 2.50149,0.71468 3.7588,7.5221 1.62695,12.45508 -3.01588,6.97861 -7.62104,14.98659 -10.5957,20.75586 -2.97466,5.76926 -4.32234,9.30548 -5.16406,12.58789 -0.841709,3.2824 -1.177596,6.31494 -0.33594,11.11328 0.84165,4.79834 2.86164,11.36608 3.61914,16.58398 0.7575,5.21794 0.25534,9.06918 -3.36524,11.60547 -3.620575,2.53629 -10.355616,3.71536 -16.248042,3.46289 -5.892424,-0.25243 -10.942507,-1.93635 -14.478516,-4.04101 -3.536009,-2.10471 -5.555209,-4.63013 -6.144531,-8.83985 -0.589323,-4.20971 0.251715,-10.09887 1.767578,-14.05664 1.515862,-3.95773 3.7018,-5.97787 5.638672,-7.66211 1.936871,-1.68419 3.620673,-3.0306 2.189453,-2.60937 -1.431217,0.42123 -5.910654,2.57893 -9.394532,5.79297 -3.48388,3.21403 -5.842133,7.42399 -7.357421,12.55859 -1.515289,5.1346 -2.206636,11.36306 -2.113282,16.24609 0.09334,4.88308 0.935081,8.75549 2.78711,12.12305 1.852029,3.36752 4.712953,6.2292 8.669922,8.33399 3.956968,2.10478 9.005738,3.45095 13.720703,3.61914 4.714964,0.16819 9.093393,-0.8416 13.554687,-0.16797 4.46129,0.67362 9.007329,3.03068 12.710939,5.89258 3.70361,2.86193 6.5654,6.23077 8.08008,9.09179 1.51467,2.86103 1.68389,5.21893 1.51562,7.91211 -0.16826,2.69318 -0.67414,5.72405 -2.4414,8.66992 -1.76727,2.94584 -4.79759,5.80897 -8.83789,7.24024 -4.04032,1.43127 -9.093292,1.4302 -12.123052,1.17773 -3.02976,-0.25243 -4.040307,-0.75778 -4.292969,0.25196 -0.252665,1.00973 0.251599,3.53545 2.861329,6.5664 2.609724,3.03096 7.323066,6.5656 12.542972,8.50195 5.21989,1.93656 10.95127,2.27369 14.90429,1.59961 3.95303,-0.67407 6.1422,-2.3563 8.83594,-6.06054 0.75361,-1.03632 1.54055,-2.23877 2.32617,-3.48633 -0.48678,2.60635 -0.54947,5.45567 0.28321,8.19922 1.43089,4.71458 5.47079,9.09099 10.18554,11.78515 4.71476,2.69417 10.10101,3.7059 13.80469,5.05274 3.70368,1.34687 5.72409,3.02915 7.66016,4.79687 1.93607,1.76773 3.78748,3.61912 5.64062,4.29297 1.85314,0.67389 3.70407,0.16915 4.88281,-0.92578 1.17875,-1.09493 1.68249,-2.77779 2.1875,-5.89258 0.50502,-3.11478 1.00987,-7.66145 0.16797,-11.44922 -0.8419,-3.78776 -3.02844,-6.8161 -4.12304,-9.93164 -1.09461,-3.1155 -1.0965,-6.31262 -0.16993,-8.41797 0.92657,-2.1053 2.77904,-3.11473 3.87305,-5.7246 1.09401,-2.60992 1.43093,-6.81602 1.68359,-9.76368 0.0902,-1.0521 0.0322,-0.42407 0.0918,-1.08203 -0.1631,2.38704 -0.22755,5.98093 0.65625,8.74024 1.18682,3.70537 4.04984,6.23006 8.42774,7.99804 4.37789,1.76799 10.26626,2.77705 14.14062,2.86133 3.87437,0.0842 5.72562,-0.75705 5.55664,-3.61914 -0.16898,-2.86212 -2.3562,-7.74251 -2.86133,-12.20508 -0.50512,-4.4626 0.71763,-8.65611 2.21094,-11.35742 1.49331,-2.70134 3.34572,-4.21749 5.11328,-8.00586 1.76756,-3.78837 3.49385,-10.00377 4.56641,-18.34375 1.07254,-8.33998 1.57802,-19.11437 0.82031,-28.62695 -0.26251,-3.29571 -1.52205,-1.40227 -2.03516,-4.44727 -5.8351,-2.21183 -14.35642,-5.81645 -21.9707,-10.36523 -10.14578,-6.0611 -23.24213,-15.00473 -32.59765,-22.25195 -9.35553,-7.24722 -14.1302,-16.15273 -17.0293,-21.42383 -2.89909,-5.27111 -2.52354,-13.3358 -2.52344,-24.4043 9e-5,-11.0685 2.97936,-25.97639 6.80078,-41.26172 3.82142,-15.28533 9.88083,-28.98651 19.76367,-38.60547 9.88285,-9.61895 23.67737,-15.18975 35.35938,-20.04687 11.68201,-4.85712 21.43118,-9.07279 30.52344,-14.34375 9.09226,-5.27097 17.52293,-11.59499 22.13476,-18.44727 4.61184,-6.85228 5.40232,-14.23158 6.85156,-14.09961 1.44925,0.13198 3.55728,7.77402 6.85157,13.3086 3.29428,5.53457 7.7736,8.96128 12.2539,11.72851 4.48031,2.76724 8.9606,4.8737 14.62696,6.19141 5.66635,1.31771 12.5178,1.84634 18.44726,3.16406 5.92947,1.31773 10.93464,3.42433 16.46875,6.19141 5.53411,2.76707 11.59534,6.19406 16.20703,9.22461 4.61169,3.03055 7.77581,5.66537 9.75196,10.4082 1.97614,4.74283 2.76683,11.59501 3.16211,18.05078 0.39527,6.45577 12.3849,29.12214 11.19921,33.33789 -1.18568,4.21576 -4.21773,2.6337 -4.3496,5.66406 -0.13189,3.03036 1.05475,5.13862 2.10937,6.45704 1.05462,1.31843 6.72097,6.58837 8.16992,8.56445 1.44895,1.97609 0.57073,16.8708 -0.0879,21.61328 -0.65857,4.74247 -4.72106,11.92143 -8.41016,17.71875 -3.6891,5.79732 -13.07621,15.98373 -20.0957,21.67578 -7.2227,5.85683 -15.1178,10.67321 -22.39844,15.34961 -4.24806,2.65508 -14.73545,7.65527 -19.8125,9.94922 0.0233,0.4734 1.25341,5.50034 0.53907,13.23828 -0.71437,7.73798 -0.69651,15.60787 0.13672,28.21484 0.61482,9.30242 1.59179,19.92889 3.97265,26.23829 2.38087,6.30935 5.88978,8.28471 7.19922,14.35546 1.30944,6.07076 1.30954,12.97718 2.38086,18.69141 1.07132,5.71423 3.21469,10.23711 5.5957,13.92773 2.38102,3.69064 4.99948,6.5483 7.73828,5.59571 2.73881,-0.95259 5.59461,-5.71371 9.88086,-9.52344 4.28626,-3.80973 10.00204,-6.66852 13.21485,-6.90625 3.21281,-0.23773 3.92832,2.14376 4.64258,5.71484 0.71425,3.57113 1.42718,8.33455 3.33203,12.14454 1.90485,3.80999 4.9994,6.66557 9.88086,8.92773 4.88145,2.26212 11.54774,3.92817 16.66796,4.64258 5.12021,0.7144 8.69063,0.477 9.64258,-1.78516 0.95195,-2.26216 -0.71467,-6.54774 -2.61914,-9.40429 -1.90443,-2.85657 -4.04822,-4.28644 -6.1914,-9.04883 -2.14315,-4.7624 -4.30117,-12.91309 -4.65039,-18.59961 -0.34938,-5.68653 1.07889,-9.01968 5.12695,-11.51953 4.0481,-2.49986 10.71345,-4.16538 15,-6.78516 4.28655,-2.61978 6.19011,-6.1904 6.78516,-10.11914 0.595,-3.92871 -0.11863,-8.21416 -1.9043,-11.9043 -1.78568,-3.6901 -4.64377,-6.78567 -8.33399,-9.64258 -3.69018,-2.85694 -8.21374,-5.47608 -12.26171,-10.35742 -4.04803,-4.8813 -5.21985,-18.37493 -4.19922,-20.44922 1.02062,-2.07428 2.07626,-4.71241 5.17187,-7.47851 3.09561,-2.7661 8.23648,-5.66717 12.61719,-8.23633 4.38071,-2.56916 8.00392,-4.80822 10.86914,-8.13477 2.86522,-3.32654 4.97458,-7.7428 6.16016,-12.38671 1.18557,-4.64392 1.44856,-9.51958 1.11914,-13.86719 -0.32943,-4.34761 -1.25058,-8.16962 -2.76563,-11.4961 -1.51505,-3.32647 -3.62431,-6.16042 -6.6875,-8.86132 -3.06319,-2.70091 -7.08322,-5.26959 -9.38867,-6.52149 -0.60925,-0.33083 -9.90712,-13.41783 -12.89453,-19.59179 -3.57192,-7.38197 -3.81841,-14.28684 -0.59961,-24.64454 3.21883,-10.35769 9.88325,-24.64029 13.2168,-35.35546 3.3335,-10.71519 3.33436,-17.61964 1.1914,-25.59571 -2.14295,-7.97606 -6.42908,-16.54682 -13.21484,-29.04687 -6.78573,-12.50006 -16.07145,-28.92926 -24.76172,-40.47657 -8.69027,-11.5473 -16.78533,-18.21525 -26.42774,-23.45312 -9.64239,-5.23786 -20.83459,-9.04655 -30.47656,-10.95117 -6.02623,-1.1904 -11.45013,-1.63757 -16.32617,-1.60156 z M 111.4668,324.92969 c 0.43452,0.0117 0.89964,0.1849 1.39062,0.56445 2.61859,2.02429 5.952,9.88346 6.9043,16.78711 0.0593,0.43018 -5.69642,-2.43891 -8.08594,-4.19531 -2.38951,-1.7564 -3.81834,-4.37472 -3.58008,-7.58985 0.19359,-2.61228 1.48817,-5.61721 3.3711,-5.5664 z m 288.04492,52.60742 c 0.98663,1.05327 2.40619,2.71426 3.32031,4.90234 1.087,2.60188 3.23472,5.89552 2.51019,8.99219 -0.72453,3.09667 -3.20291,7.53149 -5.73979,10.06857 -4.29153,4.72555 -7.02698,4.01411 -9.5829,4.88651 -1.46547,0.95257 1.13846,-7.41782 3.31445,-12.43945 2.55492,-5.89603 4.45209,-11.28709 6.17774,-16.41016 z"
       transform="scale(0.26458333)"
       id="path838-5"
       inkscape:connector-curvature="0"
       sodipodi:nodetypes="csccccscscsssscssccscccsccsccscscccsccccccccccccccscccccscccccsccsccscccsscsscssccsssccscccccccsscccscsssccscsccsccccscccccsscccccccccscssccccccccccsccccc" />
    <path
       style="opacity:1;fill:#300d02;fill-opacity:1;stroke:#300d02;stroke-width:1.88976383;stroke-linecap:butt;stroke-linejoin:miter;stroke-miterlimit:4;stroke-dasharray:none;stroke-opacity:1"
       d="m 349.69379,388.42142 c -1.26349,1.25739 -4.51719,3.52003 -5.60893,4.63454 -7.51073,6.45596 -15.85883,10.17918 -23.23698,14.79058 -3.94988,2.46872 -9.36282,4.92597 -14.73634,7.38912 -0.49046,5.22293 0.72541,9.5422 -0.41797,16.74935 -1.35832,8.56204 -0.0941,16.63253 0.51151,25.38999 0.60556,8.75746 0.794,16.42353 3.21484,21.94141 3.02256,6.88938 4.83638,9.72555 6.56446,11.59375 1.72806,1.8682 2.19343,1.58996 3.73046,-1.57813 1.53704,-3.16808 4.14731,-9.22373 6.47657,-17.60937 2.32925,-8.38565 4.37834,-19.09944 7.45312,-31.39844 3.07479,-12.299 7.17323,-26.18062 10.57422,-37.78125 1.96601,-6.70598 4.23828,-9.38592 5.47504,-14.12155 z"
       transform="scale(0.26458333)"
       id="path838-5-3"
       inkscape:connector-curvature="0"
       sodipodi:nodetypes="ccccssscccssc" />
    <path
       style="fill:none;stroke:#000000;stroke-width:0.76499999;stroke-linecap:round;stroke-linejoin:miter;stroke-miterlimit:4;stroke-dasharray:none;stroke-opacity:1"
       d="m 67.354034,54.567311 c -0.627392,1.533625 -1.254914,3.067568 -1.640641,4.98512 -0.385728,1.917551 -0.520807,4.07881 -0.660274,6.310279"
       id="path2650"
       inkscape:connector-curvature="0"
       inkscape:path-effect="#path-effect2652"
       inkscape:original-d="m 67.354034,54.567311 c -0.627259,1.533679 -1.254781,3.067622 -1.882566,4.60183 -0.139216,2.301128 -0.278636,4.462115 -0.418349,6.693569" />
    <path
       style="fill:none;stroke:#000000;stroke-width:0.76499999;stroke-linecap:round;stroke-linejoin:miter;stroke-miterlimit:4;stroke-dasharray:none;stroke-opacity:1"
       d="m 68.943788,52.932705 c -0.0308,0.733104 -0.06162,1.466482 -0.08627,2.141432 -0.02466,0.674949 -0.04314,1.291002 2e-6,1.953691 0.04314,0.66269 0.147865,1.371104 0.283464,2.012152 0.1356,0.641048 0.301946,1.214017 0.579336,1.79655 0.277391,0.582532 0.665533,1.173988 1.053834,1.765685"
       id="path2654"
       inkscape:connector-curvature="0"
       inkscape:path-effect="#path-effect2656"
       inkscape:original-d="m 68.943788,52.932705 c -0.03055,0.733115 -0.06136,1.466493 -0.09244,2.200137 -0.01823,0.616252 -0.03671,1.232305 -0.05547,1.848856 0.105079,0.708776 0.209801,1.41719 0.314306,2.126181 0.166712,0.573058 0.333058,1.146027 0.49919,1.719434 0.388641,0.591548 0.776785,1.183003 1.164778,1.774902" />
    <path
       style="fill:none;stroke:#000000;stroke-width:1.06500006;stroke-linecap:round;stroke-linejoin:miter;stroke-miterlimit:4;stroke-dasharray:none;stroke-opacity:1"
       d="m 88.79974,88.71464 c 0.25288,0.404477 0.505804,0.809025 1.076206,1.066825 0.570402,0.2578 1.457696,0.368711 2.455304,0.22506 0.997607,-0.143652 2.037277,-0.517304 3.191697,-0.923088 1.154419,-0.405784 2.390321,-0.831738 3.265132,-1.127424 0.87481,-0.295687 1.389161,-0.461327 1.903061,-0.62682"
       id="path2658"
       inkscape:connector-curvature="0"
       inkscape:path-effect="#path-effect2660"
       inkscape:original-d="m 88.79974,88.71464 c 0.253191,0.404283 0.506114,0.808831 0.758775,1.213646 0.88787,0.110686 1.775164,0.221597 2.662351,0.332793 1.109292,-0.394586 2.147607,-0.772009 3.221014,-1.157616 1.235433,-0.425965 2.471335,-0.851919 3.706605,-1.277481 0.514352,-0.165818 1.028705,-0.331457 1.542655,-0.496789" />
    <path
       style="fill:none;stroke:#000000;stroke-width:1.06500006;stroke-linecap:round;stroke-linejoin:miter;stroke-miterlimit:4;stroke-dasharray:none;stroke-opacity:1"
       d="m 43.918457,87.878167 c -0.366067,0.374963 -0.732395,0.750193 -1.273258,0.937942 -0.540863,0.187749 -1.255243,0.187749 -2.081295,0.02132 -0.826051,-0.166432 -1.762459,-0.499103 -2.383198,-0.760797 -0.620738,-0.261694 -0.90318,-0.438389 -1.235069,-0.616486 -0.33189,-0.178097 -0.701988,-0.350577 -1.072293,-0.523152"
       id="path2662"
       inkscape:connector-curvature="0"
       inkscape:path-effect="#path-effect2664"
       inkscape:original-d="m 43.918457,87.878167 c -0.366064,0.374965 -0.732393,0.750195 -1.098984,1.125691 -0.715137,-2.64e-4 -1.429517,-2.64e-4 -2.144673,0 -0.936834,-0.333181 -1.873242,-0.665853 -2.810258,-0.998381 -0.307928,-0.185179 -0.586823,-0.367545 -0.880632,-0.550921 -0.370014,-0.172828 -0.740113,-0.345307 -1.110566,-0.517564"
       sodipodi:nodetypes="cccccc" />
    <path
       style="fill:none;stroke:#000000;stroke-width:1.46500003;stroke-linecap:round;stroke-linejoin:miter;stroke-miterlimit:4;stroke-dasharray:none;stroke-opacity:1"
       d="m 44.668326,44.520418 c -1.035153,1.528082 -2.070511,3.056467 -3.30325,5.324688 -1.23274,2.26822 -2.662237,5.275094 -3.746983,8.677194 -1.084746,3.4021 -1.824209,7.198011 -2.56381,10.994631"
       id="path2685"
       inkscape:connector-curvature="0"
       inkscape:path-effect="#path-effect2687"
       inkscape:original-d="m 44.668326,44.520418 c -1.035093,1.528122 -2.070452,3.056507 -3.106076,4.585158 -1.429801,3.007804 -2.859297,6.014678 -4.289343,9.022411 -0.739355,3.796453 -1.478817,7.592364 -2.218624,11.388944" />
    <path
       style="fill:none;stroke:#000000;stroke-width:1.46500003;stroke-linecap:round;stroke-linejoin:miter;stroke-miterlimit:4;stroke-dasharray:none;stroke-opacity:1"
       d="m 90.815736,44.668326 c 1.23252,2.218536 2.465089,4.437159 3.77164,7.592588 1.306551,3.155428 2.686973,7.247394 4.067503,11.339682"
       id="path2689"
       inkscape:connector-curvature="0"
       inkscape:path-effect="#path-effect2691"
       inkscape:original-d="m 90.815736,44.668326 c 1.232834,2.218362 2.465403,4.436985 3.69771,6.655876 1.380797,4.092033 2.761221,8.183999 4.141433,12.276394" />
    <path
       style="fill:none;stroke:#000000;stroke-width:0.76499999;stroke-linecap:butt;stroke-linejoin:miter;stroke-miterlimit:4;stroke-dasharray:none;stroke-opacity:1"
       d="m 74.102091,54.430278 c 1.232862,-0.147943 2.465432,-0.295851 4.313917,0.123151 1.848485,0.419002 4.314208,1.405291 6.582102,2.169465 2.267894,0.764174 4.338724,1.306534 6.40926,1.848817"
       id="path2693"
       inkscape:connector-curvature="0"
       inkscape:path-effect="#path-effect2695"
       inkscape:original-d="m 74.102091,54.430278 c 1.232834,-0.148174 2.465404,-0.296082 3.697708,-0.443724 2.464822,0.985557 4.930545,1.971847 7.395419,2.958166 2.070868,0.542036 4.141698,1.084397 6.212152,1.626991" />
    <path
       style="fill:none;stroke:#000000;stroke-width:0.66500002;stroke-linecap:butt;stroke-linejoin:miter;stroke-miterlimit:4;stroke-dasharray:none;stroke-opacity:1"
       d="m 59.163346,55.169821 c -2.415567,0.0493 -4.831403,0.0986 -7.074771,0.640911 -2.243369,0.542311 -4.313856,1.577555 -6.38489,2.613072"
       id="path2697"
       inkscape:connector-curvature="0"
       inkscape:path-effect="#path-effect2699"
       inkscape:original-d="m 59.163346,55.169821 c -2.415572,0.04904 -4.831408,0.09834 -7.247509,0.147907 -2.070684,1.035209 -4.141171,2.070452 -6.212152,3.106076" />
    <path
       style="fill:#2c0e06;fill-opacity:1;stroke:#000000;stroke-width:1.06500006;stroke-linecap:butt;stroke-linejoin:miter;stroke-miterlimit:4;stroke-dasharray:none;stroke-opacity:1"
       d="m 34.388729,28.028618 c -0.369855,0.123185 0.07387,0.91203 0.271109,1.885731 0.197239,0.973701 0.147942,2.132187 -0.345079,3.241624 -0.493021,1.109436 -1.429552,2.169195 -2.489706,3.254015 -1.060154,1.08482 -2.243108,2.193839 -3.106058,3.648449 -0.86295,1.45461 -1.405156,3.253748 -1.466816,5.164464 -0.06166,1.910717 0.35734,3.931777 1.072278,5.805429 0.714938,1.873653 1.725544,3.599077 3.229365,5.275463 1.50382,1.676386 3.50049,3.303302 4.548238,4.018023 1.047749,0.714721 1.146356,0.517508 1.466356,-0.479424 0.32,-0.996933 0.863204,-2.799382 1.479458,-4.401601 0.616255,-1.602219 1.306614,-3.007593 1.984464,-4.289333 0.67785,-1.28174 1.343588,-2.440617 1.626976,-3.13073 0.283387,-0.690113 0.184754,-0.912036 -0.123139,-1.109112 -0.307893,-0.197076 -0.825857,-0.369731 -1.602502,-0.529999 -0.776646,-0.160268 -1.811688,-0.308131 -2.600719,-0.751974 -0.789031,-0.443844 -1.331246,-1.183226 -1.651708,-1.93516 -0.320463,-0.751934 -0.419074,-1.516174 -0.234156,-2.317264 0.184918,-0.801089 0.653433,-1.639485 1.257279,-2.539072 0.603846,-0.899586 1.343665,-1.86135 1.811935,-2.761006 0.46827,-0.899655 0.665541,-1.738059 0.640875,-2.649917 -0.02467,-0.911858 -0.27127,-1.898277 -0.813462,-2.64998 -0.542191,-0.751704 -1.380496,-1.269481 -2.391233,-1.799505 -1.010736,-0.530024 -2.1939,-1.072307 -2.563755,-0.949121 z"
       id="path2734"
       inkscape:connector-curvature="0"
       inkscape:path-effect="#path-effect2736"
       inkscape:original-d="m 33.575199,27.363047 c 0.443989,0.78858 0.887714,1.577424 1.331174,2.366533 -0.04904,1.158481 -0.09834,2.316967 -0.147907,3.475848 -0.93671,1.059997 -1.873243,2.119754 -2.810259,3.180029 -1.183315,1.109343 -2.366269,2.218362 -3.549801,3.327937 -0.542192,1.799704 -1.084397,3.598842 -1.626992,5.398656 0.419413,2.021504 0.838412,4.042564 1.257221,6.064245 1.011074,1.725504 2.021679,3.450929 3.032122,5.176793 1.99712,1.626803 3.99379,3.253718 5.990289,4.880975 0.09887,-0.197472 0.197474,-0.394687 0.295817,-0.591633 0.541721,-1.79692 1.084924,-3.59937 1.626992,-5.398656 0.690382,-1.405149 1.380741,-2.810523 2.070716,-4.215389 0.665702,-1.158618 1.331439,-2.317496 1.996763,-3.475847 -0.09831,-0.222067 -0.196945,-0.443989 -0.295817,-0.665586 -0.517129,-0.17273 -1.035093,-0.345384 -1.553038,-0.517681 -1.03541,-0.148217 -2.070452,-0.296079 -3.106074,-0.443725 -0.542184,-0.739965 -1.084397,-1.479349 -1.626994,-2.218624 -0.09834,-0.76441 -0.196945,-1.528651 -0.295815,-2.29258 0.4685,-0.838163 0.937017,-1.676558 1.405128,-2.514444 0.739529,-0.961308 1.479349,-1.923071 2.218627,-2.884212 0.197416,-0.838155 0.394686,-1.676559 0.591632,-2.514441 -0.246158,-0.985957 -0.492763,-1.972376 -0.739542,-2.958169 -0.837724,-0.517845 -1.67603,-1.035621 -2.514442,-1.553038 -1.183105,-0.542642 -2.366269,-1.084924 -3.5498,-1.626991 z" />
    <path
       style="fill:#2b0e06;fill-opacity:1;stroke:#000000;stroke-width:0.76499999;stroke-linecap:butt;stroke-linejoin:miter;stroke-miterlimit:4;stroke-dasharray:none;stroke-opacity:1"
       d="m 92.97785,46.93246 c 0.80212,-0.662621 1.603955,-1.325006 2.292361,-1.987294 0.688407,-0.662287 1.263842,-1.324909 1.6472,-2.074284 0.383359,-0.749376 0.575183,-1.586428 0.583878,-2.579748 0.0087,-0.993321 -0.16568,-2.144203 -0.348697,-3.085397 -0.183016,-0.941194 -0.374795,-1.673442 -0.296323,-2.579796 0.07847,-0.906353 0.427182,-1.987356 0.95882,-2.823926 0.531638,-0.836569 1.246525,-1.429402 1.926224,-1.926088 0.679697,-0.496687 1.324907,-0.897765 1.499247,-0.906621 0.17434,-0.0089 -0.12213,0.374814 -0.40119,0.976492 -0.27906,0.601678 -0.54033,1.420314 -0.36598,2.762952 0.17436,1.342637 0.78421,3.20705 1.49021,4.810816 0.706,1.603766 1.50777,2.945852 2.11787,4.166035 0.6101,1.220183 1.02842,2.318279 1.17661,3.9133 0.14819,1.59502 0.0262,3.686488 -0.17425,5.290214 -0.20045,1.603726 -0.47931,2.719173 -1.28124,3.948278 -0.80192,1.229105 -2.12632,2.57093 -3.27685,3.521029 -1.150532,0.950098 -2.126484,1.507785 -3.102943,2.065762"
       id="path2738"
       inkscape:connector-curvature="0"
       inkscape:path-effect="#path-effect2740"
       inkscape:original-d="m 92.97785,46.93246 c 0.802097,-0.662648 1.603933,-1.325033 2.405501,-1.987153 0.575287,-0.66241 1.150721,-1.325033 1.725687,-1.987153 0.191923,-0.836604 0.383749,-1.673656 0.575228,-2.510089 -0.173982,-1.150297 -0.348358,-2.301179 -0.522936,-3.45137 -0.191442,-0.732234 -0.38322,-1.464482 -0.575228,-2.196327 0.3488,-1.080728 0.697511,-2.161731 1.045869,-3.242197 0.714735,-0.592751 1.429621,-1.185584 2.144035,-1.777981 0.644964,-0.401018 1.290174,-0.802098 1.934854,-1.202748 -0.29592,0.383037 -0.59239,0.766707 -0.88898,1.150456 -0.26141,0.819629 -0.52268,1.638265 -0.78441,2.457794 0.61059,1.865593 1.22045,3.730005 1.83028,5.595405 0.80216,1.342052 1.60393,2.684135 2.4055,4.026601 0.41864,1.097963 0.83696,2.19606 1.25504,3.294489 -0.12177,2.091748 -0.24377,4.183216 -0.36605,6.27522 -0.27867,1.115481 -0.55754,2.230927 -0.8367,3.346786 -1.32487,1.342308 -2.64927,2.684135 -3.97431,4.026599 -0.97607,0.557644 -1.952023,1.11533 -2.928433,1.673392" />
  </g>
</svg>
